<?xml version="1.0" encoding="UTF-8"?>
<svg xmlns="http://www.w3.org/2000/svg" width="760" height="520" viewBox="0 0 760 520">
  <text x="380" y="36" text-anchor="middle" font-family="Arial, Helvetica, sans-serif" font-size="22" font-weight="700" fill="#202124">Reaction Mode Coverage</text>
  <path d="M 260.000 115.000 A 155 155 0 1 1 218.764 419.414 L 232.864 368.324 A 102 102 0 1 0 260.000 168.000 Z" fill="#7b95c6"/><path d="M 218.764 419.414 A 155 155 0 0 1 106.054 251.954 L 158.694 258.125 A 102 102 0 0 0 232.864 368.324 Z" fill="#67a583"/><path d="M 106.054 251.954 A 155 155 0 0 1 260.000 115.000 L 260.000 168.000 A 102 102 0 0 0 158.694 258.125 Z" fill="#f47254"/><text x="260" y="264" text-anchor="middle" font-family="Arial, Helvetica, sans-serif" font-size="34" font-weight="700" fill="#202124">350</text><text x="260" y="292" text-anchor="middle" font-family="Arial, Helvetica, sans-serif" font-size="14" fill="#5f6368">records</text><rect x="475" y="177" width="18" height="18" rx="3" fill="#7b95c6"/><text x="505" y="191" font-family="Arial, Helvetica, sans-serif" font-size="15" fill="#202124">Dry: 190 (54.3%)</text><rect x="475" y="211" width="18" height="18" rx="3" fill="#67a583"/><text x="505" y="225" font-family="Arial, Helvetica, sans-serif" font-size="15" fill="#202124">Wet: 79 (22.6%)</text><rect x="475" y="245" width="18" height="18" rx="3" fill="#f47254"/><text x="505" y="259" font-family="Arial, Helvetica, sans-serif" font-size="15" fill="#202124">Missing: 81 (23.1%)</text>
</svg>