<?xml version="1.0" encoding="utf-8" standalone="no"?>
<!DOCTYPE svg PUBLIC "-//W3C//DTD SVG 1.1//EN"
  "http://www.w3.org/Graphics/SVG/1.1/DTD/svg11.dtd">
<svg xmlns:xlink="http://www.w3.org/1999/xlink" width="640.975781pt" height="266.225625pt" viewBox="0 0 640.975781 266.225625" xmlns="http://www.w3.org/2000/svg" version="1.1">
 <metadata>
  <rdf:RDF xmlns:dc="http://purl.org/dc/elements/1.1/" xmlns:cc="http://creativecommons.org/ns#" xmlns:rdf="http://www.w3.org/1999/02/22-rdf-syntax-ns#">
   <cc:Work>
    <dc:type rdf:resource="http://purl.org/dc/dcmitype/StillImage"/>
    <dc:date>2026-05-27T17:56:20.419388</dc:date>
    <dc:format>image/svg+xml</dc:format>
    <dc:creator>
     <cc:Agent>
      <dc:title>Matplotlib v3.10.8, https://matplotlib.org/</dc:title>
     </cc:Agent>
    </dc:creator>
   </cc:Work>
  </rdf:RDF>
 </metadata>
 <defs>
  <style type="text/css">*{stroke-linejoin: round; stroke-linecap: butt}</style>
 </defs>
 <g id="figure_1">
  <g id="patch_1">
   <path d="M 0 266.225625 
L 640.975781 266.225625 
L 640.975781 0 
L 0 0 
z
" style="fill: #ffffff"/>
  </g>
  <g id="axes_1">
   <g id="patch_2">
    <path d="M 50.355781 230.527656 
L 633.775781 230.527656 
L 633.775781 21.207656 
L 50.355781 21.207656 
z
" style="fill: #ffffff"/>
   </g>
   <g id="matplotlib.axis_1">
    <g id="xtick_1">
     <g id="line2d_1">
      <defs>
       <path id="m6ce4162a83" d="M 0 0 
L 0 3.5 
" style="stroke: #000000; stroke-width: 0.8"/>
      </defs>
      <g>
       <use xlink:href="#m6ce4162a83" x="50.355781" y="230.527656" style="stroke: #000000; stroke-width: 0.8"/>
      </g>
     </g>
     <g id="text_1">
      <text style="font-size: 9px; font-family: 'Arial'; text-anchor: middle" x="50.355781" y="243.969687" transform="rotate(-0 50.355781 243.969687)">0</text>
     </g>
    </g>
    <g id="xtick_2">
     <g id="line2d_2">
      <g>
       <use xlink:href="#m6ce4162a83" x="120.22644" y="230.527656" style="stroke: #000000; stroke-width: 0.8"/>
      </g>
     </g>
     <g id="text_2">
      <text style="font-size: 9px; font-family: 'Arial'; text-anchor: middle" x="120.22644" y="243.969687" transform="rotate(-0 120.22644 243.969687)">20</text>
     </g>
    </g>
    <g id="xtick_3">
     <g id="line2d_3">
      <g>
       <use xlink:href="#m6ce4162a83" x="190.097099" y="230.527656" style="stroke: #000000; stroke-width: 0.8"/>
      </g>
     </g>
     <g id="text_3">
      <text style="font-size: 9px; font-family: 'Arial'; text-anchor: middle" x="190.097099" y="243.969687" transform="rotate(-0 190.097099 243.969687)">40</text>
     </g>
    </g>
    <g id="xtick_4">
     <g id="line2d_4">
      <g>
       <use xlink:href="#m6ce4162a83" x="259.967757" y="230.527656" style="stroke: #000000; stroke-width: 0.8"/>
      </g>
     </g>
     <g id="text_4">
      <text style="font-size: 9px; font-family: 'Arial'; text-anchor: middle" x="259.967757" y="243.969687" transform="rotate(-0 259.967757 243.969687)">60</text>
     </g>
    </g>
    <g id="xtick_5">
     <g id="line2d_5">
      <g>
       <use xlink:href="#m6ce4162a83" x="329.838416" y="230.527656" style="stroke: #000000; stroke-width: 0.8"/>
      </g>
     </g>
     <g id="text_5">
      <text style="font-size: 9px; font-family: 'Arial'; text-anchor: middle" x="329.838416" y="243.969687" transform="rotate(-0 329.838416 243.969687)">80</text>
     </g>
    </g>
    <g id="xtick_6">
     <g id="line2d_6">
      <g>
       <use xlink:href="#m6ce4162a83" x="399.709075" y="230.527656" style="stroke: #000000; stroke-width: 0.8"/>
      </g>
     </g>
     <g id="text_6">
      <text style="font-size: 9px; font-family: 'Arial'; text-anchor: middle" x="399.709075" y="243.969687" transform="rotate(-0 399.709075 243.969687)">100</text>
     </g>
    </g>
    <g id="xtick_7">
     <g id="line2d_7">
      <g>
       <use xlink:href="#m6ce4162a83" x="469.579733" y="230.527656" style="stroke: #000000; stroke-width: 0.8"/>
      </g>
     </g>
     <g id="text_7">
      <text style="font-size: 9px; font-family: 'Arial'; text-anchor: middle" x="469.579733" y="243.969687" transform="rotate(-0 469.579733 243.969687)">120</text>
     </g>
    </g>
    <g id="xtick_8">
     <g id="line2d_8">
      <g>
       <use xlink:href="#m6ce4162a83" x="539.450392" y="230.527656" style="stroke: #000000; stroke-width: 0.8"/>
      </g>
     </g>
     <g id="text_8">
      <text style="font-size: 9px; font-family: 'Arial'; text-anchor: middle" x="539.450392" y="243.969687" transform="rotate(-0 539.450392 243.969687)">140</text>
     </g>
    </g>
    <g id="xtick_9">
     <g id="line2d_9">
      <g>
       <use xlink:href="#m6ce4162a83" x="609.321051" y="230.527656" style="stroke: #000000; stroke-width: 0.8"/>
      </g>
     </g>
     <g id="text_9">
      <text style="font-size: 9px; font-family: 'Arial'; text-anchor: middle" x="609.321051" y="243.969687" transform="rotate(-0 609.321051 243.969687)">160</text>
     </g>
    </g>
    <g id="text_10">
     <text style="font-size: 10px; font-family: 'Arial'; text-anchor: middle" x="342.065781" y="257.038125" transform="rotate(-0 342.065781 257.038125)">Sequence position</text>
    </g>
   </g>
   <g id="matplotlib.axis_2">
    <g id="ytick_1">
     <g id="line2d_10">
      <defs>
       <path id="m67ce5f1b9d" d="M 0 0 
L -3.5 0 
" style="stroke: #000000; stroke-width: 0.8"/>
      </defs>
      <g>
       <use xlink:href="#m67ce5f1b9d" x="50.355781" y="221.013111" style="stroke: #000000; stroke-width: 0.8"/>
      </g>
     </g>
     <g id="text_11">
      <text style="font-size: 9px; font-family: 'Arial'; text-anchor: end" x="43.355781" y="224.234126" transform="rotate(-0 43.355781 224.234126)">−1.00</text>
     </g>
    </g>
    <g id="ytick_2">
     <g id="line2d_11">
      <g>
       <use xlink:href="#m67ce5f1b9d" x="50.355781" y="197.226747" style="stroke: #000000; stroke-width: 0.8"/>
      </g>
     </g>
     <g id="text_12">
      <text style="font-size: 9px; font-family: 'Arial'; text-anchor: end" x="43.355781" y="200.447763" transform="rotate(-0 43.355781 200.447763)">−0.75</text>
     </g>
    </g>
    <g id="ytick_3">
     <g id="line2d_12">
      <g>
       <use xlink:href="#m67ce5f1b9d" x="50.355781" y="173.440384" style="stroke: #000000; stroke-width: 0.8"/>
      </g>
     </g>
     <g id="text_13">
      <text style="font-size: 9px; font-family: 'Arial'; text-anchor: end" x="43.355781" y="176.661399" transform="rotate(-0 43.355781 176.661399)">−0.50</text>
     </g>
    </g>
    <g id="ytick_4">
     <g id="line2d_13">
      <g>
       <use xlink:href="#m67ce5f1b9d" x="50.355781" y="149.65402" style="stroke: #000000; stroke-width: 0.8"/>
      </g>
     </g>
     <g id="text_14">
      <text style="font-size: 9px; font-family: 'Arial'; text-anchor: end" x="43.355781" y="152.875036" transform="rotate(-0 43.355781 152.875036)">−0.25</text>
     </g>
    </g>
    <g id="ytick_5">
     <g id="line2d_14">
      <g>
       <use xlink:href="#m67ce5f1b9d" x="50.355781" y="125.867656" style="stroke: #000000; stroke-width: 0.8"/>
      </g>
     </g>
     <g id="text_15">
      <text style="font-size: 9px; font-family: 'Arial'; text-anchor: end" x="43.355781" y="129.088672" transform="rotate(-0 43.355781 129.088672)">0.00</text>
     </g>
    </g>
    <g id="ytick_6">
     <g id="line2d_15">
      <g>
       <use xlink:href="#m67ce5f1b9d" x="50.355781" y="102.081293" style="stroke: #000000; stroke-width: 0.8"/>
      </g>
     </g>
     <g id="text_16">
      <text style="font-size: 9px; font-family: 'Arial'; text-anchor: end" x="43.355781" y="105.302308" transform="rotate(-0 43.355781 105.302308)">0.25</text>
     </g>
    </g>
    <g id="ytick_7">
     <g id="line2d_16">
      <g>
       <use xlink:href="#m67ce5f1b9d" x="50.355781" y="78.294929" style="stroke: #000000; stroke-width: 0.8"/>
      </g>
     </g>
     <g id="text_17">
      <text style="font-size: 9px; font-family: 'Arial'; text-anchor: end" x="43.355781" y="81.515945" transform="rotate(-0 43.355781 81.515945)">0.50</text>
     </g>
    </g>
    <g id="ytick_8">
     <g id="line2d_17">
      <g>
       <use xlink:href="#m67ce5f1b9d" x="50.355781" y="54.508565" style="stroke: #000000; stroke-width: 0.8"/>
      </g>
     </g>
     <g id="text_18">
      <text style="font-size: 9px; font-family: 'Arial'; text-anchor: end" x="43.355781" y="57.729581" transform="rotate(-0 43.355781 57.729581)">0.75</text>
     </g>
    </g>
    <g id="ytick_9">
     <g id="line2d_18">
      <g>
       <use xlink:href="#m67ce5f1b9d" x="50.355781" y="30.722202" style="stroke: #000000; stroke-width: 0.8"/>
      </g>
     </g>
     <g id="text_19">
      <text style="font-size: 9px; font-family: 'Arial'; text-anchor: end" x="43.355781" y="33.943217" transform="rotate(-0 43.355781 33.943217)">1.00</text>
     </g>
    </g>
    <g id="text_20">
     <text style="font-size: 10px; font-family: 'Arial'; text-anchor: middle" x="14.479688" y="125.867656" transform="rotate(-90 14.479688 125.867656)">NetGlycate score</text>
    </g>
   </g>
   <g id="line2d_19">
    <path d="M 50.355781 125.867656 
L 633.775781 125.867656 
" clip-path="url(#pc09d6cf786)" style="fill: none; stroke: #808080; stroke-opacity: 0.8; stroke-linecap: square"/>
   </g>
   <g id="LineCollection_1">
    <path d="M 78.304045 125.867656 
L 78.304045 213.020893 
" clip-path="url(#pc09d6cf786)" style="fill: none; stroke: #9aa0a6; stroke-opacity: 0.9; stroke-width: 1.5"/>
   </g>
   <g id="LineCollection_2">
    <path d="M 259.967757 125.867656 
L 259.967757 215.494674 
" clip-path="url(#pc09d6cf786)" style="fill: none; stroke: #9aa0a6; stroke-opacity: 0.9; stroke-width: 1.5"/>
   </g>
   <g id="LineCollection_3">
    <path d="M 291.409554 125.867656 
L 291.409554 212.164584 
" clip-path="url(#pc09d6cf786)" style="fill: none; stroke: #9aa0a6; stroke-opacity: 0.9; stroke-width: 1.5"/>
   </g>
   <g id="LineCollection_4">
    <path d="M 312.370751 125.867656 
L 312.370751 205.028674 
" clip-path="url(#pc09d6cf786)" style="fill: none; stroke: #9aa0a6; stroke-opacity: 0.9; stroke-width: 1.5"/>
   </g>
   <g id="LineCollection_5">
    <path d="M 319.357817 125.867656 
L 319.357817 207.883038 
" clip-path="url(#pc09d6cf786)" style="fill: none; stroke: #9aa0a6; stroke-opacity: 0.9; stroke-width: 1.5"/>
   </g>
   <g id="LineCollection_6">
    <path d="M 340.319015 125.867656 
L 340.319015 193.135493 
" clip-path="url(#pc09d6cf786)" style="fill: none; stroke: #9aa0a6; stroke-opacity: 0.9; stroke-width: 1.5"/>
   </g>
   <g id="LineCollection_7">
    <path d="M 368.267278 125.867656 
L 368.267278 211.974293 
" clip-path="url(#pc09d6cf786)" style="fill: none; stroke: #9aa0a6; stroke-opacity: 0.9; stroke-width: 1.5"/>
   </g>
   <g id="LineCollection_8">
    <path d="M 521.982727 125.867656 
L 521.982727 213.686911 
" clip-path="url(#pc09d6cf786)" style="fill: none; stroke: #9aa0a6; stroke-opacity: 0.9; stroke-width: 1.5"/>
   </g>
   <g id="LineCollection_9">
    <path d="M 532.463326 125.867656 
L 532.463326 217.207293 
" clip-path="url(#pc09d6cf786)" style="fill: none; stroke: #9aa0a6; stroke-opacity: 0.9; stroke-width: 1.5"/>
   </g>
   <g id="LineCollection_10">
    <path d="M 542.943925 125.867656 
L 542.943925 207.502456 
" clip-path="url(#pc09d6cf786)" style="fill: none; stroke: #9aa0a6; stroke-opacity: 0.9; stroke-width: 1.5"/>
   </g>
   <g id="LineCollection_11">
    <path d="M 99.265242 125.867656 
L 99.265242 49.370711 
" clip-path="url(#pc09d6cf786)" style="fill: none; stroke: #e67e22; stroke-opacity: 0.95; stroke-width: 2.2"/>
   </g>
   <g id="LineCollection_12">
    <path d="M 214.551829 125.867656 
L 214.551829 37.858111 
" clip-path="url(#pc09d6cf786)" style="fill: none; stroke: #e67e22; stroke-opacity: 0.95; stroke-width: 2.2"/>
   </g>
   <g id="LineCollection_13">
    <path d="M 294.903087 125.867656 
L 294.903087 48.038674 
" clip-path="url(#pc09d6cf786)" style="fill: none; stroke: #e67e22; stroke-opacity: 0.95; stroke-width: 2.2"/>
   </g>
   <g id="LineCollection_14">
    <path d="M 399.709075 125.867656 
L 399.709075 49.465856 
" clip-path="url(#pc09d6cf786)" style="fill: none; stroke: #e67e22; stroke-opacity: 0.95; stroke-width: 2.2"/>
   </g>
   <g id="LineCollection_15">
    <path d="M 403.202608 125.867656 
L 403.202608 49.656147 
" clip-path="url(#pc09d6cf786)" style="fill: none; stroke: #e67e22; stroke-opacity: 0.95; stroke-width: 2.2"/>
   </g>
   <g id="patch_3">
    <path d="M 50.355781 230.527656 
L 50.355781 21.207656 
" style="fill: none; stroke: #000000; stroke-width: 0.8; stroke-linejoin: miter; stroke-linecap: square"/>
   </g>
   <g id="patch_4">
    <path d="M 50.355781 230.527656 
L 633.775781 230.527656 
" style="fill: none; stroke: #000000; stroke-width: 0.8; stroke-linejoin: miter; stroke-linecap: square"/>
   </g>
   <g id="PathCollection_1">
    <defs>
     <path id="m7ca48f238d" d="M 0 2.44949 
C 0.649612 2.44949 1.272706 2.191396 1.732051 1.732051 
C 2.191396 1.272706 2.44949 0.649612 2.44949 0 
C 2.44949 -0.649612 2.191396 -1.272706 1.732051 -1.732051 
C 1.272706 -2.191396 0.649612 -2.44949 0 -2.44949 
C -0.649612 -2.44949 -1.272706 -2.191396 -1.732051 -1.732051 
C -2.191396 -1.272706 -2.44949 -0.649612 -2.44949 0 
C -2.44949 0.649612 -2.191396 1.272706 -1.732051 1.732051 
C -1.272706 2.191396 -0.649612 2.44949 0 2.44949 
z
" style="stroke: #9aa0a6"/>
    </defs>
    <g clip-path="url(#pc09d6cf786)">
     <use xlink:href="#m7ca48f238d" x="78.304045" y="213.020893" style="fill: #9aa0a6; stroke: #9aa0a6"/>
    </g>
   </g>
   <g id="PathCollection_2">
    <g clip-path="url(#pc09d6cf786)">
     <use xlink:href="#m7ca48f238d" x="259.967757" y="215.494674" style="fill: #9aa0a6; stroke: #9aa0a6"/>
    </g>
   </g>
   <g id="PathCollection_3">
    <g clip-path="url(#pc09d6cf786)">
     <use xlink:href="#m7ca48f238d" x="291.409554" y="212.164584" style="fill: #9aa0a6; stroke: #9aa0a6"/>
    </g>
   </g>
   <g id="PathCollection_4">
    <g clip-path="url(#pc09d6cf786)">
     <use xlink:href="#m7ca48f238d" x="312.370751" y="205.028674" style="fill: #9aa0a6; stroke: #9aa0a6"/>
    </g>
   </g>
   <g id="PathCollection_5">
    <g clip-path="url(#pc09d6cf786)">
     <use xlink:href="#m7ca48f238d" x="319.357817" y="207.883038" style="fill: #9aa0a6; stroke: #9aa0a6"/>
    </g>
   </g>
   <g id="PathCollection_6">
    <g clip-path="url(#pc09d6cf786)">
     <use xlink:href="#m7ca48f238d" x="340.319015" y="193.135493" style="fill: #9aa0a6; stroke: #9aa0a6"/>
    </g>
   </g>
   <g id="PathCollection_7">
    <g clip-path="url(#pc09d6cf786)">
     <use xlink:href="#m7ca48f238d" x="368.267278" y="211.974293" style="fill: #9aa0a6; stroke: #9aa0a6"/>
    </g>
   </g>
   <g id="PathCollection_8">
    <g clip-path="url(#pc09d6cf786)">
     <use xlink:href="#m7ca48f238d" x="521.982727" y="213.686911" style="fill: #9aa0a6; stroke: #9aa0a6"/>
    </g>
   </g>
   <g id="PathCollection_9">
    <g clip-path="url(#pc09d6cf786)">
     <use xlink:href="#m7ca48f238d" x="532.463326" y="217.207293" style="fill: #9aa0a6; stroke: #9aa0a6"/>
    </g>
   </g>
   <g id="PathCollection_10">
    <g clip-path="url(#pc09d6cf786)">
     <use xlink:href="#m7ca48f238d" x="542.943925" y="207.502456" style="fill: #9aa0a6; stroke: #9aa0a6"/>
    </g>
   </g>
   <g id="text_21">
    <text style="font-size: 9px; font-family: 'Arial'; text-anchor: middle" x="99.265242" y="41.873234" transform="rotate(-0 99.265242 41.873234)">K14</text>
   </g>
   <g id="text_22">
    <text style="font-size: 9px; font-family: 'Arial'; text-anchor: middle" x="214.551829" y="30.360634" transform="rotate(-0 214.551829 30.360634)">K47</text>
   </g>
   <g id="text_23">
    <text style="font-size: 9px; font-family: 'Arial'; text-anchor: middle" x="294.903087" y="40.541197" transform="rotate(-0 294.903087 40.541197)">K70</text>
   </g>
   <g id="text_24">
    <text style="font-size: 9px; font-family: 'Arial'; text-anchor: middle" x="399.709075" y="41.968379" transform="rotate(-0 399.709075 41.968379)">K100</text>
   </g>
   <g id="text_25">
    <text style="font-size: 9px; font-family: 'Arial'; text-anchor: middle" x="403.202608" y="42.15867" transform="rotate(-0 403.202608 42.15867)">K101</text>
   </g>
   <g id="text_26">
    <text style="font-size: 11px; font-family: 'Arial'; text-anchor: middle" x="342.065781" y="15.207656" transform="rotate(-0 342.065781 15.207656)">NetGlycate-predicted glycation-prone lysine sites in beta-LG</text>
   </g>
   <g id="PathCollection_11">
    <defs>
     <path id="mafa621741a" d="M 0 2.915476 
C 0.773193 2.915476 1.514823 2.608283 2.061553 2.061553 
C 2.608283 1.514823 2.915476 0.773193 2.915476 0 
C 2.915476 -0.773193 2.608283 -1.514823 2.061553 -2.061553 
C 1.514823 -2.608283 0.773193 -2.915476 0 -2.915476 
C -0.773193 -2.915476 -1.514823 -2.608283 -2.061553 -2.061553 
C -2.608283 -1.514823 -2.915476 -0.773193 -2.915476 0 
C -2.915476 0.773193 -2.608283 1.514823 -2.061553 2.061553 
C -1.514823 2.608283 -0.773193 2.915476 0 2.915476 
z
" style="stroke: #e67e22"/>
    </defs>
    <g clip-path="url(#pc09d6cf786)">
     <use xlink:href="#mafa621741a" x="99.265242" y="49.370711" style="fill: #e67e22; stroke: #e67e22"/>
    </g>
   </g>
   <g id="PathCollection_12">
    <g clip-path="url(#pc09d6cf786)">
     <use xlink:href="#mafa621741a" x="214.551829" y="37.858111" style="fill: #e67e22; stroke: #e67e22"/>
    </g>
   </g>
   <g id="PathCollection_13">
    <g clip-path="url(#pc09d6cf786)">
     <use xlink:href="#mafa621741a" x="294.903087" y="48.038674" style="fill: #e67e22; stroke: #e67e22"/>
    </g>
   </g>
   <g id="PathCollection_14">
    <g clip-path="url(#pc09d6cf786)">
     <use xlink:href="#mafa621741a" x="399.709075" y="49.465856" style="fill: #e67e22; stroke: #e67e22"/>
    </g>
   </g>
   <g id="PathCollection_15">
    <g clip-path="url(#pc09d6cf786)">
     <use xlink:href="#mafa621741a" x="403.202608" y="49.656147" style="fill: #e67e22; stroke: #e67e22"/>
    </g>
   </g>
   <g id="legend_1">
    <g id="line2d_20">
     <path d="M 57.555781 196.020156 
L 65.555781 196.020156 
L 73.555781 196.020156 
" style="fill: none; stroke: #9aa0a6; stroke-width: 1.5; stroke-linecap: square"/>
     <defs>
      <path id="mba3ee88e9b" d="M 0 2.5 
C 0.663008 2.5 1.29895 2.236584 1.767767 1.767767 
C 2.236584 1.29895 2.5 0.663008 2.5 0 
C 2.5 -0.663008 2.236584 -1.29895 1.767767 -1.767767 
C 1.29895 -2.236584 0.663008 -2.5 0 -2.5 
C -0.663008 -2.5 -1.29895 -2.236584 -1.767767 -1.767767 
C -2.236584 -1.29895 -2.5 -0.663008 -2.5 0 
C -2.5 0.663008 -2.236584 1.29895 -1.767767 1.767767 
C -1.29895 2.236584 -0.663008 2.5 0 2.5 
z
" style="stroke: #9aa0a6"/>
     </defs>
     <g>
      <use xlink:href="#mba3ee88e9b" x="65.555781" y="196.020156" style="fill: #9aa0a6; stroke: #9aa0a6"/>
     </g>
    </g>
    <g id="text_27">
     <text style="font-size: 8px; font-family: 'Arial'; text-anchor: start" x="79.955781" y="198.820156" transform="rotate(-0 79.955781 198.820156)">Other lysine residues</text>
    </g>
    <g id="line2d_21">
     <path d="M 57.555781 207.527656 
L 65.555781 207.527656 
L 73.555781 207.527656 
" style="fill: none; stroke: #e67e22; stroke-width: 2.2; stroke-linecap: square"/>
     <defs>
      <path id="m974d988775" d="M 0 2.5 
C 0.663008 2.5 1.29895 2.236584 1.767767 1.767767 
C 2.236584 1.29895 2.5 0.663008 2.5 0 
C 2.5 -0.663008 2.236584 -1.29895 1.767767 -1.767767 
C 1.29895 -2.236584 0.663008 -2.5 0 -2.5 
C -0.663008 -2.5 -1.29895 -2.236584 -1.767767 -1.767767 
C -2.236584 -1.29895 -2.5 -0.663008 -2.5 0 
C -2.5 0.663008 -2.236584 1.29895 -1.767767 1.767767 
C -1.29895 2.236584 -0.663008 2.5 0 2.5 
z
" style="stroke: #e67e22"/>
     </defs>
     <g>
      <use xlink:href="#m974d988775" x="65.555781" y="207.527656" style="fill: #e67e22; stroke: #e67e22"/>
     </g>
    </g>
    <g id="text_28">
     <text style="font-size: 8px; font-family: 'Arial'; text-anchor: start" x="79.955781" y="210.327656" transform="rotate(-0 79.955781 210.327656)">Predicted glycation-prone sites (YES)</text>
    </g>
    <g id="line2d_22">
     <path d="M 57.555781 218.937656 
L 65.555781 218.937656 
L 73.555781 218.937656 
" style="fill: none; stroke: #808080; stroke-linecap: square"/>
    </g>
    <g id="text_29">
     <text style="font-size: 8px; font-family: 'Arial'; text-anchor: start" x="79.955781" y="221.737656" transform="rotate(-0 79.955781 221.737656)">Threshold = 0</text>
    </g>
   </g>
  </g>
 </g>
 <defs>
  <clipPath id="pc09d6cf786">
   <rect x="50.355781" y="21.207656" width="583.42" height="209.32"/>
  </clipPath>
 </defs>
</svg>
