<?xml version="1.0" encoding="UTF-8"?>
<svg xmlns="http://www.w3.org/2000/svg" width="980" height="620" viewBox="0 0 980 620">
  <text x="490" y="36" text-anchor="middle" font-family="Arial, Helvetica, sans-serif" font-size="22" font-weight="700" fill="#202124">Curated Evidence Base Overview</text>
  <line x1="76" y1="470" x2="938" y2="470" stroke="#e7e3dc" stroke-width="1"/><text x="66" y="474" text-anchor="end" font-family="Arial, Helvetica, sans-serif" font-size="13" fill="#5f6368">0</text><line x1="76" y1="390.4" x2="938" y2="390.4" stroke="#e7e3dc" stroke-width="1"/><text x="66" y="394.4" text-anchor="end" font-family="Arial, Helvetica, sans-serif" font-size="13" fill="#5f6368">70</text><line x1="76" y1="310.8" x2="938" y2="310.8" stroke="#e7e3dc" stroke-width="1"/><text x="66" y="314.8" text-anchor="end" font-family="Arial, Helvetica, sans-serif" font-size="13" fill="#5f6368">140</text><line x1="76" y1="231.2" x2="938" y2="231.2" stroke="#e7e3dc" stroke-width="1"/><text x="66" y="235.2" text-anchor="end" font-family="Arial, Helvetica, sans-serif" font-size="13" fill="#5f6368">210</text><line x1="76" y1="151.60000000000002" x2="938" y2="151.60000000000002" stroke="#e7e3dc" stroke-width="1"/><text x="66" y="155.60000000000002" text-anchor="end" font-family="Arial, Helvetica, sans-serif" font-size="13" fill="#5f6368">280</text><line x1="76" y1="72" x2="938" y2="72" stroke="#e7e3dc" stroke-width="1"/><text x="66" y="76" text-anchor="end" font-family="Arial, Helvetica, sans-serif" font-size="13" fill="#5f6368">350</text><rect x="111.83333333333333" y="443.8457142857143" width="72" height="26.154285714285713" rx="4" fill="#7b95c6"/><text x="147.83333333333331" y="435.8457142857143" text-anchor="middle" font-family="Arial, Helvetica, sans-serif" font-size="13" font-weight="700" fill="#202124">23</text><text x="147.83333333333331" y="492" transform="rotate(-40 147.83333333333331 492)" text-anchor="end" font-family="Arial, Helvetica, sans-serif" font-size="13" fill="#202124">Papers</text><rect x="255.5" y="234.61142857142858" width="72" height="235.38857142857142" rx="4" fill="#67a583"/><text x="291.5" y="226.61142857142858" text-anchor="middle" font-family="Arial, Helvetica, sans-serif" font-size="13" font-weight="700" fill="#202124">207</text><text x="291.5" y="492" transform="rotate(-40 291.5 492)" text-anchor="end" font-family="Arial, Helvetica, sans-serif" font-size="13" fill="#202124">Unique runs</text><rect x="399.16666666666663" y="72" width="72" height="398" rx="4" fill="#f47254"/><text x="435.16666666666663" y="64" text-anchor="middle" font-family="Arial, Helvetica, sans-serif" font-size="13" font-weight="700" fill="#202124">350</text><text x="435.16666666666663" y="492" transform="rotate(-40 435.16666666666663 492)" text-anchor="end" font-family="Arial, Helvetica, sans-serif" font-size="13" fill="#202124">Metric-level records</text><rect x="542.8333333333334" y="151.59999999999997" width="72" height="318.40000000000003" rx="4" fill="#f59c7c"/><text x="578.8333333333334" y="143.59999999999997" text-anchor="middle" font-family="Arial, Helvetica, sans-serif" font-size="13" font-weight="700" fill="#202124">280</text><text x="578.8333333333334" y="492" transform="rotate(-40 578.8333333333334 492)" text-anchor="end" font-family="Arial, Helvetica, sans-serif" font-size="13" fill="#202124">Treatment records</text><rect x="686.5" y="390.4" width="72" height="79.60000000000001" rx="4" fill="#a2c986"/><text x="722.5" y="382.4" text-anchor="middle" font-family="Arial, Helvetica, sans-serif" font-size="13" font-weight="700" fill="#202124">70</text><text x="722.5" y="492" transform="rotate(-40 722.5 492)" text-anchor="end" font-family="Arial, Helvetica, sans-serif" font-size="13" fill="#202124">Control records</text><rect x="830.1666666666666" y="294.88" width="72" height="175.12" rx="4" fill="#c85e62"/><text x="866.1666666666666" y="286.88" text-anchor="middle" font-family="Arial, Helvetica, sans-serif" font-size="13" font-weight="700" fill="#202124">154</text><text x="866.1666666666666" y="492" transform="rotate(-40 866.1666666666666 492)" text-anchor="end" font-family="Arial, Helvetica, sans-serif" font-size="13" fill="#202124">Numeric reductions</text><line x1="76" y1="470" x2="938" y2="470" stroke="#202124" stroke-width="1.2"/><line x1="76" y1="72" x2="76" y2="470" stroke="#202124" stroke-width="1.2"/><text x="22" y="271" transform="rotate(-90 22 271)" text-anchor="middle" font-family="Arial, Helvetica, sans-serif" font-size="14" fill="#3c4043">Count</text>
</svg>