<?xml version="1.0" encoding="UTF-8"?>
<svg xmlns="http://www.w3.org/2000/svg" width="760" height="520" viewBox="0 0 760 520">
  <text x="380" y="36" text-anchor="middle" font-family="Arial, Helvetica, sans-serif" font-size="22" font-weight="700" fill="#202124">Reported Reduction Thresholds</text>
  <line x1="76" y1="370" x2="718" y2="370" stroke="#e7e3dc" stroke-width="1"/><text x="66" y="374" text-anchor="end" font-family="Arial, Helvetica, sans-serif" font-size="13" fill="#5f6368">0</text><line x1="76" y1="310.4" x2="718" y2="310.4" stroke="#e7e3dc" stroke-width="1"/><text x="66" y="314.4" text-anchor="end" font-family="Arial, Helvetica, sans-serif" font-size="13" fill="#5f6368">23</text><line x1="76" y1="250.8" x2="718" y2="250.8" stroke="#e7e3dc" stroke-width="1"/><text x="66" y="254.8" text-anchor="end" font-family="Arial, Helvetica, sans-serif" font-size="13" fill="#5f6368">47</text><line x1="76" y1="191.2" x2="718" y2="191.2" stroke="#e7e3dc" stroke-width="1"/><text x="66" y="195.2" text-anchor="end" font-family="Arial, Helvetica, sans-serif" font-size="13" fill="#5f6368">70</text><line x1="76" y1="131.6" x2="718" y2="131.6" stroke="#e7e3dc" stroke-width="1"/><text x="66" y="135.6" text-anchor="end" font-family="Arial, Helvetica, sans-serif" font-size="13" fill="#5f6368">94</text><line x1="76" y1="72" x2="718" y2="72" stroke="#e7e3dc" stroke-width="1"/><text x="66" y="76" text-anchor="end" font-family="Arial, Helvetica, sans-serif" font-size="13" fill="#5f6368">117</text><rect x="147" y="72" width="72" height="298" rx="4" fill="#7b95c6"/><text x="183" y="64" text-anchor="middle" font-family="Arial, Helvetica, sans-serif" font-size="13" font-weight="700" fill="#202124">117</text><text x="183" y="392" transform="rotate(-40 183 392)" text-anchor="end" font-family="Arial, Helvetica, sans-serif" font-size="13" fill="#202124">&gt;= 50%</text><rect x="361" y="196.8034188034188" width="72" height="173.1965811965812" rx="4" fill="#67a583"/><text x="397" y="188.8034188034188" text-anchor="middle" font-family="Arial, Helvetica, sans-serif" font-size="13" font-weight="700" fill="#202124">68</text><text x="397" y="392" transform="rotate(-40 397 392)" text-anchor="end" font-family="Arial, Helvetica, sans-serif" font-size="13" fill="#202124">&gt;= 80%</text><rect x="575" y="268.1196581196581" width="72" height="101.88034188034189" rx="4" fill="#f47254"/><text x="611" y="260.1196581196581" text-anchor="middle" font-family="Arial, Helvetica, sans-serif" font-size="13" font-weight="700" fill="#202124">40</text><text x="611" y="392" transform="rotate(-40 611 392)" text-anchor="end" font-family="Arial, Helvetica, sans-serif" font-size="13" fill="#202124">&gt;= 90%</text><line x1="76" y1="370" x2="718" y2="370" stroke="#202124" stroke-width="1.2"/><line x1="76" y1="72" x2="76" y2="370" stroke="#202124" stroke-width="1.2"/><text x="22" y="221" transform="rotate(-90 22 221)" text-anchor="middle" font-family="Arial, Helvetica, sans-serif" font-size="14" fill="#3c4043">Records</text>
</svg>