<?xml version="1.0" encoding="UTF-8"?>
<svg xmlns="http://www.w3.org/2000/svg" width="980" height="620" viewBox="0 0 980 620">
  <text x="490" y="36" text-anchor="middle" font-family="Arial, Helvetica, sans-serif" font-size="22" font-weight="700" fill="#202124">Most Frequent Donors</text>
  <line x1="76" y1="470" x2="938" y2="470" stroke="#e7e3dc" stroke-width="1"/><text x="66" y="474" text-anchor="end" font-family="Arial, Helvetica, sans-serif" font-size="13" fill="#5f6368">0</text><line x1="76" y1="390.4" x2="938" y2="390.4" stroke="#e7e3dc" stroke-width="1"/><text x="66" y="394.4" text-anchor="end" font-family="Arial, Helvetica, sans-serif" font-size="13" fill="#5f6368">10</text><line x1="76" y1="310.8" x2="938" y2="310.8" stroke="#e7e3dc" stroke-width="1"/><text x="66" y="314.8" text-anchor="end" font-family="Arial, Helvetica, sans-serif" font-size="13" fill="#5f6368">20</text><line x1="76" y1="231.2" x2="938" y2="231.2" stroke="#e7e3dc" stroke-width="1"/><text x="66" y="235.2" text-anchor="end" font-family="Arial, Helvetica, sans-serif" font-size="13" fill="#5f6368">31</text><line x1="76" y1="151.60000000000002" x2="938" y2="151.60000000000002" stroke="#e7e3dc" stroke-width="1"/><text x="66" y="155.60000000000002" text-anchor="end" font-family="Arial, Helvetica, sans-serif" font-size="13" fill="#5f6368">41</text><line x1="76" y1="72" x2="938" y2="72" stroke="#e7e3dc" stroke-width="1"/><text x="66" y="76" text-anchor="end" font-family="Arial, Helvetica, sans-serif" font-size="13" fill="#5f6368">51</text><rect x="92.378" y="72" width="53.444" height="398" rx="4" fill="#7b95c6"/><text x="119.1" y="64" text-anchor="middle" font-family="Arial, Helvetica, sans-serif" font-size="13" font-weight="700" fill="#202124">51</text><text x="119.1" y="492" transform="rotate(-40 119.1 492)" text-anchor="end" font-family="Arial, Helvetica, sans-serif" font-size="13" fill="#202124">maltose</text><rect x="178.57799999999997" y="87.60784313725492" width="53.444" height="382.3921568627451" rx="4" fill="#67a583"/><text x="205.29999999999998" y="79.60784313725492" text-anchor="middle" font-family="Arial, Helvetica, sans-serif" font-size="13" font-weight="700" fill="#202124">49</text><text x="205.29999999999998" y="492" transform="rotate(-40 205.29999999999998 492)" text-anchor="end" font-family="Arial, Helvetica, sans-serif" font-size="13" fill="#202124">glucose</text><rect x="264.778" y="196.86274509803923" width="53.444" height="273.1372549019608" rx="4" fill="#f47254"/><text x="291.5" y="188.86274509803923" text-anchor="middle" font-family="Arial, Helvetica, sans-serif" font-size="13" font-weight="700" fill="#202124">35</text><text x="291.5" y="492" transform="rotate(-40 291.5 492)" text-anchor="end" font-family="Arial, Helvetica, sans-serif" font-size="13" fill="#202124">galactose</text><rect x="350.978" y="298.3137254901961" width="53.444" height="171.68627450980392" rx="4" fill="#f59c7c"/><text x="377.7" y="290.3137254901961" text-anchor="middle" font-family="Arial, Helvetica, sans-serif" font-size="13" font-weight="700" fill="#202124">22</text><text x="377.7" y="492" transform="rotate(-40 377.7 492)" text-anchor="end" font-family="Arial, Helvetica, sans-serif" font-size="13" fill="#202124">GOS</text><rect x="437.178" y="345.1372549019608" width="53.444" height="124.86274509803921" rx="4" fill="#a2c986"/><text x="463.9" y="337.1372549019608" text-anchor="middle" font-family="Arial, Helvetica, sans-serif" font-size="13" font-weight="700" fill="#202124">16</text><text x="463.9" y="492" transform="rotate(-40 463.9 492)" text-anchor="end" font-family="Arial, Helvetica, sans-serif" font-size="13" fill="#202124">mannose</text><rect x="523.378" y="376.3529411764706" width="53.444" height="93.6470588235294" rx="4" fill="#c85e62"/><text x="550.1" y="368.3529411764706" text-anchor="middle" font-family="Arial, Helvetica, sans-serif" font-size="13" font-weight="700" fill="#202124">12</text><text x="550.1" y="492" transform="rotate(-40 550.1 492)" text-anchor="end" font-family="Arial, Helvetica, sans-serif" font-size="13" fill="#202124">dextran</text><rect x="609.5780000000001" y="391.9607843137255" width="53.444" height="78.0392156862745" rx="4" fill="#49c2d9"/><text x="636.3000000000001" y="383.9607843137255" text-anchor="middle" font-family="Arial, Helvetica, sans-serif" font-size="13" font-weight="700" fill="#202124">10</text><text x="636.3000000000001" y="492" transform="rotate(-40 636.3000000000001 492)" text-anchor="end" font-family="Arial, Helvetica, sans-serif" font-size="13" fill="#202124">ribose</text><rect x="695.778" y="399.7647058823529" width="53.444" height="70.23529411764706" rx="4" fill="#ffc1a6"/><text x="722.5" y="391.7647058823529" text-anchor="middle" font-family="Arial, Helvetica, sans-serif" font-size="13" font-weight="700" fill="#202124">9</text><text x="722.5" y="492" transform="rotate(-40 722.5 492)" text-anchor="end" font-family="Arial, Helvetica, sans-serif" font-size="13" fill="#202124">lactose</text><rect x="781.9780000000001" y="407.5686274509804" width="53.444" height="62.431372549019606" rx="4" fill="#fded95"/><text x="808.7" y="399.5686274509804" text-anchor="middle" font-family="Arial, Helvetica, sans-serif" font-size="13" font-weight="700" fill="#202124">8</text><text x="808.7" y="492" transform="rotate(-40 808.7 492)" text-anchor="end" font-family="Arial, Helvetica, sans-serif" font-size="13" fill="#202124">glucosamine (GlcN)</text><rect x="868.1780000000001" y="407.5686274509804" width="53.444" height="62.431372549019606" rx="4" fill="#a1d8e8"/><text x="894.9000000000001" y="399.5686274509804" text-anchor="middle" font-family="Arial, Helvetica, sans-serif" font-size="13" font-weight="700" fill="#202124">8</text><text x="894.9000000000001" y="492" transform="rotate(-40 894.9000000000001 492)" text-anchor="end" font-family="Arial, Helvetica, sans-serif" font-size="13" fill="#202124">D-Allose</text><line x1="76" y1="470" x2="938" y2="470" stroke="#202124" stroke-width="1.2"/><line x1="76" y1="72" x2="76" y2="470" stroke="#202124" stroke-width="1.2"/><text x="22" y="271" transform="rotate(-90 22 271)" text-anchor="middle" font-family="Arial, Helvetica, sans-serif" font-size="14" fill="#3c4043">Records</text>
</svg>