<?xml version="1.0" encoding="UTF-8"?>
<svg xmlns="http://www.w3.org/2000/svg" width="900" height="700" viewBox="0 0 900 700">
<title>Role composition across workflow phases</title>
<rect width="900" height="700" fill="#FFFFFF"/>
<text x="18.00" y="42.00" text-anchor="start" dominant-baseline="middle" font-family="Helvetica, Arial, sans-serif" font-size="30.00" font-weight="700" fill="#202124">b</text>
<text x="450.00" y="42.00" text-anchor="middle" dominant-baseline="middle" font-family="Helvetica, Arial, sans-serif" font-size="30.00" font-weight="700" fill="#202124">Role composition across workflow phases</text>
<line x1="250.00" y1="108.00" x2="250.00" y2="490.00" stroke="#DDE7F5" stroke-width="1.50"/>
<text x="250.00" y="517.00" text-anchor="middle" dominant-baseline="middle" font-family="Helvetica, Arial, sans-serif" font-size="20.00" font-weight="400" fill="#5F6368">0</text>
<line x1="402.50" y1="108.00" x2="402.50" y2="490.00" stroke="#DDE7F5" stroke-width="1.50"/>
<text x="402.50" y="517.00" text-anchor="middle" dominant-baseline="middle" font-family="Helvetica, Arial, sans-serif" font-size="20.00" font-weight="400" fill="#5F6368">25</text>
<line x1="555.00" y1="108.00" x2="555.00" y2="490.00" stroke="#DDE7F5" stroke-width="1.50"/>
<text x="555.00" y="517.00" text-anchor="middle" dominant-baseline="middle" font-family="Helvetica, Arial, sans-serif" font-size="20.00" font-weight="400" fill="#5F6368">50</text>
<line x1="707.50" y1="108.00" x2="707.50" y2="490.00" stroke="#DDE7F5" stroke-width="1.50"/>
<text x="707.50" y="517.00" text-anchor="middle" dominant-baseline="middle" font-family="Helvetica, Arial, sans-serif" font-size="20.00" font-weight="400" fill="#5F6368">75</text>
<line x1="860.00" y1="108.00" x2="860.00" y2="490.00" stroke="#DDE7F5" stroke-width="1.50"/>
<text x="860.00" y="517.00" text-anchor="middle" dominant-baseline="middle" font-family="Helvetica, Arial, sans-serif" font-size="20.00" font-weight="400" fill="#5F6368">100</text>
<text x="233.00" y="134.00" text-anchor="end" dominant-baseline="middle" font-family="Helvetica, Arial, sans-serif" font-size="20.00" font-weight="400" fill="#202124">Team selection</text>
<rect x="250.00" y="108.00" width="96.37" height="52.00" rx="0.00" fill="#4E7D3A"/>
<text x="298.18" y="134.00" text-anchor="middle" dominant-baseline="middle" font-family="Helvetica, Arial, sans-serif" font-size="18.00" font-weight="700" fill="#FFFFFF">15.8%</text>
<rect x="346.37" y="108.00" width="513.63" height="52.00" rx="0.00" fill="#143E7D"/>
<text x="603.18" y="134.00" text-anchor="middle" dominant-baseline="middle" font-family="Helvetica, Arial, sans-serif" font-size="18.00" font-weight="700" fill="#FFFFFF">84.2%</text>
<line x1="250.00" y1="108.00" x2="860.00" y2="108.00" stroke="#A8ADB5" stroke-width="1.00"/>
<line x1="250.00" y1="160.00" x2="860.00" y2="160.00" stroke="#A8ADB5" stroke-width="1.00"/>
<line x1="250.00" y1="108.00" x2="250.00" y2="160.00" stroke="#A8ADB5" stroke-width="1.00"/>
<line x1="860.00" y1="108.00" x2="860.00" y2="160.00" stroke="#A8ADB5" stroke-width="1.00"/>
<text x="233.00" y="208.00" text-anchor="end" dominant-baseline="middle" font-family="Helvetica, Arial, sans-serif" font-size="20.00" font-weight="400" fill="#202124">Project specification</text>
<rect x="250.00" y="182.00" width="2.38" height="52.00" rx="0.00" fill="#4E7D3A"/>
<line x1="251.50" y1="183.00" x2="251.50" y2="174.00" stroke="#4E7D3A" stroke-width="1.50"/>
<text x="256.50" y="171.00" text-anchor="start" dominant-baseline="middle" font-family="Helvetica, Arial, sans-serif" font-size="14.00" font-weight="700" fill="#4E7D3A">0.4%</text>
<rect x="252.38" y="182.00" width="296.65" height="52.00" rx="0.00" fill="#143E7D"/>
<text x="400.70" y="208.00" text-anchor="middle" dominant-baseline="middle" font-family="Helvetica, Arial, sans-serif" font-size="18.00" font-weight="700" fill="#FFFFFF">48.6%</text>
<rect x="549.03" y="182.00" width="72.86" height="52.00" rx="0.00" fill="#2F69B1"/>
<text x="585.46" y="208.00" text-anchor="middle" dominant-baseline="middle" font-family="Helvetica, Arial, sans-serif" font-size="18.00" font-weight="700" fill="#FFFFFF">11.9%</text>
<rect x="621.89" y="182.00" width="107.84" height="52.00" rx="0.00" fill="#49C2D9"/>
<text x="675.81" y="208.00" text-anchor="middle" dominant-baseline="middle" font-family="Helvetica, Arial, sans-serif" font-size="18.00" font-weight="700" fill="#202124">17.7%</text>
<rect x="729.73" y="182.00" width="95.30" height="52.00" rx="0.00" fill="#6F9E5A"/>
<text x="777.38" y="208.00" text-anchor="middle" dominant-baseline="middle" font-family="Helvetica, Arial, sans-serif" font-size="18.00" font-weight="700" fill="#FFFFFF">15.6%</text>
<rect x="825.03" y="182.00" width="34.97" height="52.00" rx="0.00" fill="#A8ADB5"/>
<text x="842.51" y="208.00" text-anchor="middle" dominant-baseline="middle" font-family="Helvetica, Arial, sans-serif" font-size="14.00" font-weight="700" fill="#202124">5.7%</text>
<line x1="250.00" y1="182.00" x2="860.00" y2="182.00" stroke="#A8ADB5" stroke-width="1.00"/>
<line x1="250.00" y1="234.00" x2="860.00" y2="234.00" stroke="#A8ADB5" stroke-width="1.00"/>
<line x1="250.00" y1="182.00" x2="250.00" y2="234.00" stroke="#A8ADB5" stroke-width="1.00"/>
<line x1="860.00" y1="182.00" x2="860.00" y2="234.00" stroke="#A8ADB5" stroke-width="1.00"/>
<text x="233.00" y="282.00" text-anchor="end" dominant-baseline="middle" font-family="Helvetica, Arial, sans-serif" font-size="20.00" font-weight="400" fill="#202124">Tools selection</text>
<rect x="250.00" y="256.00" width="1.17" height="52.00" rx="0.00" fill="#4E7D3A"/>
<line x1="251.50" y1="257.00" x2="251.50" y2="248.00" stroke="#4E7D3A" stroke-width="1.50"/>
<text x="256.50" y="245.00" text-anchor="start" dominant-baseline="middle" font-family="Helvetica, Arial, sans-serif" font-size="14.00" font-weight="700" fill="#4E7D3A">0.2%</text>
<rect x="251.17" y="256.00" width="270.12" height="52.00" rx="0.00" fill="#143E7D"/>
<text x="386.23" y="282.00" text-anchor="middle" dominant-baseline="middle" font-family="Helvetica, Arial, sans-serif" font-size="18.00" font-weight="700" fill="#FFFFFF">44.3%</text>
<rect x="521.30" y="256.00" width="88.38" height="52.00" rx="0.00" fill="#2F69B1"/>
<text x="565.49" y="282.00" text-anchor="middle" dominant-baseline="middle" font-family="Helvetica, Arial, sans-serif" font-size="18.00" font-weight="700" fill="#FFFFFF">14.5%</text>
<rect x="609.68" y="256.00" width="106.93" height="52.00" rx="0.00" fill="#49C2D9"/>
<text x="663.14" y="282.00" text-anchor="middle" dominant-baseline="middle" font-family="Helvetica, Arial, sans-serif" font-size="18.00" font-weight="700" fill="#202124">17.5%</text>
<rect x="716.61" y="256.00" width="94.49" height="52.00" rx="0.00" fill="#6F9E5A"/>
<text x="763.85" y="282.00" text-anchor="middle" dominant-baseline="middle" font-family="Helvetica, Arial, sans-serif" font-size="18.00" font-weight="700" fill="#FFFFFF">15.5%</text>
<rect x="811.10" y="256.00" width="48.90" height="52.00" rx="0.00" fill="#A8ADB5"/>
<text x="835.55" y="282.00" text-anchor="middle" dominant-baseline="middle" font-family="Helvetica, Arial, sans-serif" font-size="14.00" font-weight="700" fill="#202124">8.0%</text>
<line x1="250.00" y1="256.00" x2="860.00" y2="256.00" stroke="#A8ADB5" stroke-width="1.00"/>
<line x1="250.00" y1="308.00" x2="860.00" y2="308.00" stroke="#A8ADB5" stroke-width="1.00"/>
<line x1="250.00" y1="256.00" x2="250.00" y2="308.00" stroke="#A8ADB5" stroke-width="1.00"/>
<line x1="860.00" y1="256.00" x2="860.00" y2="308.00" stroke="#A8ADB5" stroke-width="1.00"/>
<text x="233.00" y="356.00" text-anchor="end" dominant-baseline="middle" font-family="Helvetica, Arial, sans-serif" font-size="20.00" font-weight="400" fill="#202124">Execution planning</text>
<rect x="250.00" y="330.00" width="2.28" height="52.00" rx="0.00" fill="#4E7D3A"/>
<line x1="251.50" y1="331.00" x2="251.50" y2="322.00" stroke="#4E7D3A" stroke-width="1.50"/>
<text x="256.50" y="319.00" text-anchor="start" dominant-baseline="middle" font-family="Helvetica, Arial, sans-serif" font-size="14.00" font-weight="700" fill="#4E7D3A">0.4%</text>
<rect x="252.28" y="330.00" width="315.32" height="52.00" rx="0.00" fill="#143E7D"/>
<text x="409.94" y="356.00" text-anchor="middle" dominant-baseline="middle" font-family="Helvetica, Arial, sans-serif" font-size="18.00" font-weight="700" fill="#FFFFFF">51.7%</text>
<rect x="567.60" y="330.00" width="66.88" height="52.00" rx="0.00" fill="#2F69B1"/>
<text x="601.04" y="356.00" text-anchor="middle" dominant-baseline="middle" font-family="Helvetica, Arial, sans-serif" font-size="18.00" font-weight="700" fill="#FFFFFF">11.0%</text>
<rect x="634.49" y="330.00" width="75.52" height="52.00" rx="0.00" fill="#49C2D9"/>
<text x="672.25" y="356.00" text-anchor="middle" dominant-baseline="middle" font-family="Helvetica, Arial, sans-serif" font-size="18.00" font-weight="700" fill="#202124">12.4%</text>
<rect x="710.01" y="330.00" width="99.84" height="52.00" rx="0.00" fill="#6F9E5A"/>
<text x="759.93" y="356.00" text-anchor="middle" dominant-baseline="middle" font-family="Helvetica, Arial, sans-serif" font-size="18.00" font-weight="700" fill="#FFFFFF">16.4%</text>
<rect x="809.85" y="330.00" width="50.15" height="52.00" rx="0.00" fill="#A8ADB5"/>
<text x="834.92" y="356.00" text-anchor="middle" dominant-baseline="middle" font-family="Helvetica, Arial, sans-serif" font-size="14.00" font-weight="700" fill="#202124">8.2%</text>
<line x1="250.00" y1="330.00" x2="860.00" y2="330.00" stroke="#A8ADB5" stroke-width="1.00"/>
<line x1="250.00" y1="382.00" x2="860.00" y2="382.00" stroke="#A8ADB5" stroke-width="1.00"/>
<line x1="250.00" y1="330.00" x2="250.00" y2="382.00" stroke="#A8ADB5" stroke-width="1.00"/>
<line x1="860.00" y1="330.00" x2="860.00" y2="382.00" stroke="#A8ADB5" stroke-width="1.00"/>
<text x="233.00" y="430.00" text-anchor="end" dominant-baseline="middle" font-family="Helvetica, Arial, sans-serif" font-size="20.00" font-weight="400" fill="#202124">First iteration</text>
<rect x="250.00" y="404.00" width="1.27" height="52.00" rx="0.00" fill="#4E7D3A"/>
<line x1="251.50" y1="405.00" x2="251.50" y2="396.00" stroke="#4E7D3A" stroke-width="1.50"/>
<text x="256.50" y="393.00" text-anchor="start" dominant-baseline="middle" font-family="Helvetica, Arial, sans-serif" font-size="14.00" font-weight="700" fill="#4E7D3A">0.2%</text>
<rect x="251.27" y="404.00" width="237.92" height="52.00" rx="0.00" fill="#143E7D"/>
<text x="370.23" y="430.00" text-anchor="middle" dominant-baseline="middle" font-family="Helvetica, Arial, sans-serif" font-size="18.00" font-weight="700" fill="#FFFFFF">39.0%</text>
<rect x="489.19" y="404.00" width="78.36" height="52.00" rx="0.00" fill="#2F69B1"/>
<text x="528.37" y="430.00" text-anchor="middle" dominant-baseline="middle" font-family="Helvetica, Arial, sans-serif" font-size="18.00" font-weight="700" fill="#FFFFFF">12.8%</text>
<rect x="567.55" y="404.00" width="110.40" height="52.00" rx="0.00" fill="#49C2D9"/>
<text x="622.75" y="430.00" text-anchor="middle" dominant-baseline="middle" font-family="Helvetica, Arial, sans-serif" font-size="18.00" font-weight="700" fill="#202124">18.1%</text>
<rect x="677.96" y="404.00" width="142.56" height="52.00" rx="0.00" fill="#6F9E5A"/>
<text x="749.23" y="430.00" text-anchor="middle" dominant-baseline="middle" font-family="Helvetica, Arial, sans-serif" font-size="18.00" font-weight="700" fill="#FFFFFF">23.4%</text>
<rect x="820.51" y="404.00" width="39.49" height="52.00" rx="0.00" fill="#A8ADB5"/>
<text x="840.26" y="430.00" text-anchor="middle" dominant-baseline="middle" font-family="Helvetica, Arial, sans-serif" font-size="14.00" font-weight="700" fill="#202124">6.5%</text>
<line x1="250.00" y1="404.00" x2="860.00" y2="404.00" stroke="#A8ADB5" stroke-width="1.00"/>
<line x1="250.00" y1="456.00" x2="860.00" y2="456.00" stroke="#A8ADB5" stroke-width="1.00"/>
<line x1="250.00" y1="404.00" x2="250.00" y2="456.00" stroke="#A8ADB5" stroke-width="1.00"/>
<line x1="860.00" y1="404.00" x2="860.00" y2="456.00" stroke="#A8ADB5" stroke-width="1.00"/>
<text x="555.00" y="549.00" text-anchor="middle" dominant-baseline="middle" font-family="Helvetica, Arial, sans-serif" font-size="20.00" font-weight="400" fill="#202124">Share of words within phase (%)</text>
<rect x="80.00" y="581.00" width="26.00" height="22.00" rx="0.00" fill="#4E7D3A"/>
<text x="117.00" y="592.00" text-anchor="start" dominant-baseline="middle" font-family="Helvetica, Arial, sans-serif" font-size="18.00" font-weight="400" fill="#202124">Human researcher</text>
<rect x="365.00" y="581.00" width="26.00" height="22.00" rx="0.00" fill="#143E7D"/>
<text x="402.00" y="592.00" text-anchor="start" dominant-baseline="middle" font-family="Helvetica, Arial, sans-serif" font-size="18.00" font-weight="400" fill="#202124">Principal investigator</text>
<rect x="650.00" y="581.00" width="26.00" height="22.00" rx="0.00" fill="#2F69B1"/>
<text x="687.00" y="592.00" text-anchor="start" dominant-baseline="middle" font-family="Helvetica, Arial, sans-serif" font-size="18.00" font-weight="400" fill="#202124">Maillard chemistry</text>
<rect x="80.00" y="626.00" width="26.00" height="22.00" rx="0.00" fill="#49C2D9"/>
<text x="117.00" y="637.00" text-anchor="start" dominant-baseline="middle" font-family="Helvetica, Arial, sans-serif" font-size="18.00" font-weight="400" fill="#202124">Allergenicity</text>
<rect x="365.00" y="626.00" width="26.00" height="22.00" rx="0.00" fill="#6F9E5A"/>
<text x="402.00" y="637.00" text-anchor="start" dominant-baseline="middle" font-family="Helvetica, Arial, sans-serif" font-size="18.00" font-weight="400" fill="#202124">Experimental design</text>
<rect x="650.00" y="626.00" width="26.00" height="22.00" rx="0.00" fill="#A8ADB5"/>
<text x="687.00" y="637.00" text-anchor="start" dominant-baseline="middle" font-family="Helvetica, Arial, sans-serif" font-size="18.00" font-weight="400" fill="#202124">Scientific critic</text>
</svg>